{"title":"Law.Abiding.Citizen.2009.DVDRip.XviD-Emery","uid":5288273,"size":744225312,"categoryP":"video","categoryS":"movies","magnet":"?xt=urn:btih:363292e3a3d174245d1371ab3c2c8d18c5d78553&amp;dn=Law.Abiding.Citizen.2009.DVDRip.XviD-Emery&amp;tr=udp%3A%2F%2Ftracker.openbittorrent.com%3A80&amp;tr=udp%3A%2F%2Fopen.demonii.com%3A1337&amp;tr=udp%3A%2F%2Ftracker.coppersurfer.tk%3A6969&amp;tr=udp%3A%2F%2Fexodus.desync.com%3A6969","seeders":0,"leechers":0,"uploader":"Emery2010","files":-1,"time":1263800849,"description":"Info:\nGeneral\nComplete name : Law.Abiding.Citizen.2009.DVDRip.XviD-Emery.avi\nFormat : AVI\nFormat/Info : Audio Video Interleave\nFile size : 710 MiB\nDuration : 1h 48mn\nOverall bit rate : 912 Kbps\nWriting application : VirtualDubMod 1.5.10.2 (build 2540/release)\nWriting library : VirtualDubMod build 2540/release\n\nVideo\nID : 0\nFormat : MPEG-4 Visual\nFormat profile : AdvancedSimple@L5\nFormat settings, BVOP : Yes\nFormat settings, QPel : No\nFormat settings, GMC : No warppoints\nFormat settings, Matrix : Default (H.263)\nMuxing mode : Packed bitstream\nCodec ID : XVID\nCodec ID/Hint : XviD\nDuration : 1h 48mn\nBit rate : 772 Kbps\nWidth : 640 pixels\nHeight : 272 pixels\nDisplay aspect ratio : 2.35:1\nFrame rate : 29.970 fps\nResolution : 24 bits\nColorimetry : 4:2:0\nScan type : Progressive\nBits/(Pixel*Frame) : 0.148\nStream size : 601 MiB (85%)\nWriting library : XviD 1.2.1 (UTC 2008-12-04)\n\nAudio\nID : 1\nFormat : MPEG Audio\nFormat version : Version 1\nFormat profile : Layer 3\nFormat settings, Mode : Joint stereo / MS Stereo\nCodec ID : 55\nCodec ID/Hint : MP3\nDuration : 1h 48mn\nBit rate mode : Constant\nBit rate : 128 Kbps\nChannel(s) : 2 channels\nSampling rate : 48.0 KHz\nResolution : 16 bits\nStream size : 99.6 MiB (14%)\nAlignment : Aligned on interleaves\nInterleave, duration : 33 ms (1.00 video frame)\nInterleave, preload duration : 504 ms\n &lt;a href=&quot;\nhttp://uk.imdb.com/title/tt1197624/&quot; rel=&quot;nofollow&quot; target=&quot;_NEW&quot;&gt;\nhttp://uk.imdb.com/title/tt1197624/&lt;/a&gt;\n\nUser Rating:\n7.3/10 17,865 votes\n\nDirector:\nF. Gary Gray\n\nRelease Date:\n16 October 2009 (USA)\n\nGenre:\nCrime | Drama | Thriller\n\nTagline:\nThe System Must Pay\n\nPlot\n\nA frustrated man decides to take justice into his own hands\nafter a plea bargain sets one of his family's killers free.\nHe targets not only the killer but also the district attorney\nand others involved in the deal\n\nCast\n\nJamie Foxx ... Nick Rice\nGerard Butler ... Clyde Shelton\nColm Meaney ... Detective Dunnigan\nBruce McGill ... Jonas Cantrell\nLeslie Bibb ... Sarah Lowell\nMichael Irby ... Detective Garza\nGregory Itzin ... Warden Iger\nRegina Hall ... Kelly Rice\nEmerald-Angel Young... Denise Rice\nChristian Stolte... Clarence Darby\nAnnie Corley ... Judge Laura Burch\nRichard Portnow ... Bill Reynolds\nViola Davis ... Mayor\nMichael Kelly ... Bray\nJosh Stewart ... Rupert Ames\n","torrent":{"xt":"urn:btih:363292e3a3d174245d1371ab3c2c8d18c5d78553","amp;dn":"Law.Abiding.Citizen.2009.DVDRip.XviD-Emery","amp;tr":["udp%3A%2F%2Ftracker.openbittorrent.com%3A80","udp%3A%2F%2Fopen.demonii.com%3A1337","udp%3A%2F%2Ftracker.coppersurfer.tk%3A6969","udp%3A%2F%2Fexodus.desync.com%3A6969"],"infoHash":"363292e3a3d174245d1371ab3c2c8d18c5d78553","infoHashBuffer":{"type":"Buffer","data":[54,50,146,227,163,209,116,36,93,19,113,171,60,44,141,24,197,215,133,83]},"announce":[],"urlList":[]}}